<?xml version="1.0" encoding="utf-8"?>
<!-- Generator: Adobe Illustrator 21.0.2, SVG Export Plug-In . SVG Version: 6.00 Build 0)  -->
<svg version="1.1" id="Layer_1" xmlns="http://www.w3.org/2000/svg" xmlns:xlink="http://www.w3.org/1999/xlink" x="0px" y="0px"
	 viewBox="0 0 504 504" style="enable-background:new 0 0 504 504;" xml:space="preserve">
<style type="text/css">
	.st0{fill:#FFFFFF;}
	.st1{fill:#F0533F;}
</style>
<g>
	<path class="st0" d="M29,159c1.2-4.8,1.8-6.3,4.1-9.2c2-2.5,4.3-4.1,5.8-7.5c3.1-6.9,5.5-9.9,11.2-13.3c3-1.8,6.2-2.9,8-4.1
		c0,0,2.9-0.6,2.8-0.6c1.5-0.8,1.2-3.1,2.8-3.9c1.8-0.9,3.5,2.2,5.1,1.3c1.4-0.8,0.5-2.7,1.5-3.9c3.5-4.1,3.3-7.7,3.6-14.6
		c0.7-16.5,1-33.1,1.6-49.8c3.1,5.2,10.8-1.3,6.2-3.4c1.4-0.5,4.5-3.3,4.7-3.4c4.8-1.2,5.5,1,9.5,3.4c8.3,4.9,17.4,0.6,26.2-2.4
		c6.7-2.3,14.2-3.1,20.4-6.2c2.3-1.1,7.1-5.9,9.4-6.4c2.9-0.5,4.9,3.5,7.1-1.3c2.1,5,8.5-5.3,12.4-7.3c1.3-0.7,2.3,1.7,5-0.5
		c2.8-2.3,3.9-0.6,6.5,1.4c4.8,3.7,3.4,7.2,0.2,11.8c-2.3,3.2-5.6,4.4-6.2,7.9c-0.5,2.6,1.9,4.3,1.1,7.1c-0.4,1.5-3.3,3-4.1,5.6
		c-1.6,5.2-1.4,4,3.4,3c5.1-1,9.5-4.7,10.1-9.7c4.2,4.1,9.1,9.2,14.2,11.6c3.4,1.6,9-0.2,10.5,5.2c1.3-0.4,2.7-0.4,3.2-0.6
		c1.9-2.3,3-0.7,2.2,2.2c1.3-0.5,2-0.2,3-0.7c0.9,2.5,0.7,2.1,3.4,1.5c2.8,3,4.4,7.7,6.2,12.5c3.3,8.8,14.4,9,24.5,11.8
		c14.7,4.1,29.8,8.3,44.4,12.2c5.3,1.4,27.7,14.9,29,12.5c0.1,0.2,1.1,0.3,1.3,0.2c-0.1,0.8-0.2,0.8-0.2,1.7
		c3.3-2.3,5.2,0.6,8.2,1.5c2.2,0.6,5.8-0.5,5.8-0.6c4.5-2.5,5.8-0.6,8.4,0.6c3.1,1.3,8.9,0.1,10.5,4.1c1.7,0.4,3.8,0.1,5.8-0.9
		c1.8,3.1,6,1,9.2,3.9c2.7,2.4,2.6,4.3,2.2,7.7c-0.3,3-4.4,5.4,1.7,6.9c2.2,0.6,7.9-3.4,6.4,1.1c4.1,3.4,10.8,0.5,13.5,7.1
		c1.2,2.9,0.3,2,0.6,3.6c-0.2-1.2,0,3.8,0,3.9c0,1.5,4.8,8.8-1.9,6.4c7.3,7.8-3.7,15.7-3,22.8c0.7-0.1,0.5-1,0.7-1.1
		c0.2,0.3,1.4,2,1.5,2.1c2-1.7,3.6-0.3,5.8-1.3c1.1-0.5,4.7-4.1,6.2-3.9c6.1,0.8,0.4,8.9-0.7,11.6c-1.8,4.4-2.9,7.9-0.9,12.2
		c2.3,4.8,6.9,4.5,9.9,7.7c-3.3,1.4-1.5,4.5-2.6,7.5c-1.5,3.9,0.5,2.3-2.6,4.3c-1.7,1.1-6.3,0.7-8.5,1.4c-5.9,2-3.7,6.7-5.3,10.8
		c-3.2,7.9-9.2,14.1-11,23.6c-0.3,1.3-0.6,4.3-0.6,5.2c0.1,2-3,2.8,1.3,5.1c6.3,3.3,6.5-3.7,9.1-6.6c2.8-3.1,7.2-3.3,9.5-6.2
		c1.9-2.4,1.1-5.9,2.5-8c2.2-3.1,9.9-17.5,14.8-14.6c1.7,1,5.8-1.8,6.6-2.2c1.6-0.6,0.2,5.6,2.4-0.6c-0.1,0.2-0.5-4.1-0.4-5.1
		c0.7-3.7,3.2-7.8,5.1-10.9c4.4-7.2,4.7-16.7,13.8-16.1c-0.7-5.3,1.6-7,4.3-10.9c6.9-1,6.9,2.9,4.3,8.2c0.7-1.4-6.8,2.6-2.3,6.4
		c0.4,0.3-1,6.8-1.6,7.7c-0.9,1.4-1.4,2.7-3.2,2.5c-2.2-0.2-1.1,2.9-2.2,4.6c-0.6,0.9-1.6,0.7-2.3,2.2c-1.2,2.4,0.3,4.3-0.1,5.6
		c-1.3,4.8-5.5,8.5-8.4,13.9c-5.6,10.1-11.4,24.7-13.7,36.3c-0.7,3.8-3.2,10.5-3.2,14.6c0,6.8,5.7,11.5,0.6,17.8
		c-3,3.7-6.1,4-8.2,8.4c-1.6,3.4-2.4,8.9-3.4,12.9c-2.3,9.8,0.9,17.3,0.9,27.1c0,5.9-5.7,11.6-6.7,17.7c-0.9,5.3-1.5,7.6-3.9,12.9
		c-4.6,10.4-2.6,21.4-2.1,30.5c0.1,1,1.8,2,1.9,3.4c0.1,1.3-1.6,3.1-1.5,3.7c0.3,2.6,0.8,3.6,1.7,6.2c2.1,6.1,1.5,13.8,6.7,19.1
		c3.3,3.3,0,9.3-0.7,13.3c-1.1,5.8-1.8,13.4,0.7,19.1c-48.6,1.6-97.4,1.6-146.2,0.9c-24.3-0.3-49.1,1.7-73.4-0.6
		c1.7-18.5-24.3-14.4-31.6-24.5c-1.4-2-1.1-5.7-1.9-9.2c0,0-0.9-2.6-1.3-3.4c-0.4-0.9-3.2-4.2-3.4-4.7c-1.7-5-3.9-16.8-2.4-22.5
		c2.4-8.8,14.6-12.3,4.7-21c-1.3-1.2-5.7-2.1-6.4-3.2c-1.5-2.5,1.3-2.6,0.6-5.1c-0.4-1.4-2.3-4.2-2.4-5.4c-0.2-1.7,1.4-2.7,1.1-4.9
		c-0.7-5.9-4.2-11.8-3.9-17.8c0.2-5.2,2-8.3,1.1-12.9c-0.7-3.8-2.4-7-4.3-10.1c-3.4-5.6-7.2-11.5-13.5-13.9c-6.8-2.6-8.1-3-12.5-7.7
		c-3.5-3.7-12.4-7.4-15.2-12.5c-3.1-5.8-1.4-10.1-5.2-15.2c-3.8-4.9-11-6.4-16.9-8.9c-7.8-3.4-7.2-11-13-13.8
		c-2.7-1.3-6.9-0.3-9.7-1.1c-5.3-1.5-1.8-0.8-5.6-3.9c-3.3-2.7-10-8.2-14.4-13.7c-3.4-4.2-2.4-3.3-0.7-8.8c1-3.4,0.5-5.8,0.7-9.2
		c0.2-2.7,0.9-5.1,0.6-8.2c-0.1-1.3,0.9-3.4,0.7-4.3c-0.2-1.3-3-2.8-2.8-3.7c0.6-3.5,4.7-4.1,4.2-7.7c-0.5-4-0.2-6.6-0.3-9.9
		c-0.3-8.6,7.1-11.5,8.6-18.7c0.5-2.6-3.7-12.5-5.6-14.4c-3-3-5.2-2.3-9.3-2.7C27.6,166.8,29,161.1,29,159 M465,187.4
		c-0.7-1.9-0.8-3.7,0.4-5.6c2.4,1.5,7.5,2,8-1.1c1.3,0.6,1.3,0.7,1.9,2.1c-3.1,1.2-6.7,9.8-6.9,12
		C466.7,191.7,463.8,190.7,465,187.4 M199.3,37.1c-2.5,0.6-11.5,2.8-5.8,4.9c-2.2,1.5-6.6,3.9-9.7,4.7
		C182.8,43.3,197.3,30.4,199.3,37.1 M202.3,24.4c4.2,2.1-1.5,4.6-3.4,5.1C188.8,31.9,197.2,25.8,202.3,24.4 M211.8,13
		c0.9,3.2-0.5,7.7-4.7,8.6C207.9,18.1,206.7,12.7,211.8,13"/>
</g>
<polygon class="st1" points="275.9,375.6 283.3,390.5 299.8,392.9 287.8,404.6 290.7,421 275.9,413.2 261.1,421 263.9,404.6 
	252,392.9 268.5,390.5 "/>
</svg>
